<mxfile host="Electron" agent="Mozilla/5.0 (Windows NT 10.0; Win64; x64) AppleWebKit/537.36 (KHTML, like Gecko) draw.io/26.0.16 Chrome/132.0.6834.196 Electron/34.2.0 Safari/537.36" version="26.0.16">
  <diagram name="Page-1" id="FsOa7l-C5VSHT7nvQXYq">
    <mxGraphModel dx="944" dy="1640" grid="1" gridSize="10" guides="1" tooltips="1" connect="1" arrows="1" fold="1" page="1" pageScale="1" pageWidth="850" pageHeight="1100" math="0" shadow="0">
      <root>
        <mxCell id="0" />
        <mxCell id="1" parent="0" />
        <mxCell id="jkoqVyiWME8nA23onl7f-1" value="" style="rounded=0;whiteSpace=wrap;html=1;" vertex="1" parent="1">
          <mxGeometry x="120" y="278" width="160" height="200" as="geometry" />
        </mxCell>
        <mxCell id="jkoqVyiWME8nA23onl7f-2" value="MAKE_SEED" style="text;html=1;align=left;verticalAlign=bottom;whiteSpace=wrap;rounded=0;fontFamily=Lucida Console;" vertex="1" parent="1">
          <mxGeometry x="120" y="260" width="160" height="20" as="geometry" />
        </mxCell>
        <mxCell id="jkoqVyiWME8nA23onl7f-7" value="seed" style="text;html=1;align=center;verticalAlign=bottom;whiteSpace=wrap;rounded=0;fontFamily=Lucida Console;spacingRight=12;spacingLeft=12;" vertex="1" parent="1">
          <mxGeometry x="280" y="340.9999999999999" width="120" height="20" as="geometry" />
        </mxCell>
        <mxCell id="jkoqVyiWME8nA23onl7f-8" value="" style="endArrow=none;html=1;rounded=0;strokeWidth=3;" edge="1" parent="1">
          <mxGeometry width="50" height="50" relative="1" as="geometry">
            <mxPoint x="280" y="378.9999999999999" as="sourcePoint" />
            <mxPoint x="400" y="378.9999999999999" as="targetPoint" />
          </mxGeometry>
        </mxCell>
        <mxCell id="jkoqVyiWME8nA23onl7f-9" value="20" style="text;html=1;align=center;verticalAlign=bottom;whiteSpace=wrap;rounded=0;fontFamily=Lucida Console;fontStyle=0" vertex="1" parent="1">
          <mxGeometry x="309.5" y="394.9999999999999" width="61" height="20" as="geometry" />
        </mxCell>
        <mxCell id="jkoqVyiWME8nA23onl7f-10" value="" style="endArrow=none;html=1;rounded=0;strokeWidth=1;fontStyle=0" edge="1" parent="1">
          <mxGeometry width="50" height="50" relative="1" as="geometry">
            <mxPoint x="335.5" y="389.9999999999999" as="sourcePoint" />
            <mxPoint x="344.5" y="367.9999999999999" as="targetPoint" />
          </mxGeometry>
        </mxCell>
        <mxCell id="jkoqVyiWME8nA23onl7f-11" value="" style="rounded=0;whiteSpace=wrap;html=1;" vertex="1" parent="1">
          <mxGeometry x="400" y="287" width="160" height="200" as="geometry" />
        </mxCell>
        <mxCell id="jkoqVyiWME8nA23onl7f-12" value="SELECT_SEED" style="text;html=1;align=left;verticalAlign=bottom;whiteSpace=wrap;rounded=0;fontFamily=Lucida Console;" vertex="1" parent="1">
          <mxGeometry x="400" y="269" width="160" height="20" as="geometry" />
        </mxCell>
        <mxCell id="jkoqVyiWME8nA23onl7f-13" value="reset" style="text;html=1;align=right;verticalAlign=bottom;whiteSpace=wrap;rounded=0;fontFamily=Lucida Console;spacingRight=12;" vertex="1" parent="1">
          <mxGeometry x="320" y="430" width="80" height="20" as="geometry" />
        </mxCell>
        <mxCell id="jkoqVyiWME8nA23onl7f-14" value="" style="endArrow=none;html=1;rounded=0;exitX=0;exitY=0;exitDx=0;exitDy=0;" edge="1" parent="1" source="jkoqVyiWME8nA23onl7f-15">
          <mxGeometry width="50" height="50" relative="1" as="geometry">
            <mxPoint x="280" y="450" as="sourcePoint" />
            <mxPoint x="400" y="450" as="targetPoint" />
          </mxGeometry>
        </mxCell>
        <mxCell id="jkoqVyiWME8nA23onl7f-15" value="clock" style="text;html=1;align=right;verticalAlign=bottom;whiteSpace=wrap;rounded=0;fontFamily=Lucida Console;spacingRight=12;" vertex="1" parent="1">
          <mxGeometry x="320" y="450.31" width="80" height="20" as="geometry" />
        </mxCell>
        <mxCell id="jkoqVyiWME8nA23onl7f-16" value="" style="endArrow=none;html=1;rounded=0;" edge="1" parent="1">
          <mxGeometry width="50" height="50" relative="1" as="geometry">
            <mxPoint x="320" y="470" as="sourcePoint" />
            <mxPoint x="400" y="470.30999999999995" as="targetPoint" />
          </mxGeometry>
        </mxCell>
        <mxCell id="jkoqVyiWME8nA23onl7f-21" value="reset" style="text;html=1;align=right;verticalAlign=bottom;whiteSpace=wrap;rounded=0;fontFamily=Lucida Console;spacingRight=12;" vertex="1" parent="1">
          <mxGeometry x="40" y="429.48" width="80" height="20" as="geometry" />
        </mxCell>
        <mxCell id="jkoqVyiWME8nA23onl7f-22" value="" style="endArrow=none;html=1;rounded=0;exitX=0;exitY=0;exitDx=0;exitDy=0;" edge="1" source="jkoqVyiWME8nA23onl7f-23" parent="1">
          <mxGeometry width="50" height="50" relative="1" as="geometry">
            <mxPoint y="449.48" as="sourcePoint" />
            <mxPoint x="120" y="449.48" as="targetPoint" />
          </mxGeometry>
        </mxCell>
        <mxCell id="jkoqVyiWME8nA23onl7f-23" value="clock" style="text;html=1;align=right;verticalAlign=bottom;whiteSpace=wrap;rounded=0;fontFamily=Lucida Console;spacingRight=12;" vertex="1" parent="1">
          <mxGeometry x="40" y="449.79" width="80" height="20" as="geometry" />
        </mxCell>
        <mxCell id="jkoqVyiWME8nA23onl7f-24" value="" style="endArrow=none;html=1;rounded=0;" edge="1" parent="1">
          <mxGeometry width="50" height="50" relative="1" as="geometry">
            <mxPoint x="40" y="469.48" as="sourcePoint" />
            <mxPoint x="120" y="469.78999999999996" as="targetPoint" />
          </mxGeometry>
        </mxCell>
        <mxCell id="jkoqVyiWME8nA23onl7f-25" value="seedBits" style="text;html=1;align=center;verticalAlign=bottom;whiteSpace=wrap;rounded=0;fontFamily=Lucida Console;spacingRight=12;spacingLeft=12;" vertex="1" parent="1">
          <mxGeometry x="560" y="340.9999999999999" width="120" height="20" as="geometry" />
        </mxCell>
        <mxCell id="jkoqVyiWME8nA23onl7f-26" value="" style="endArrow=none;html=1;rounded=0;strokeWidth=3;edgeStyle=elbowEdgeStyle;" edge="1" parent="1">
          <mxGeometry width="50" height="50" relative="1" as="geometry">
            <mxPoint x="560" y="378.9999999999999" as="sourcePoint" />
            <mxPoint x="680" y="860" as="targetPoint" />
            <Array as="points">
              <mxPoint x="680" y="610" />
            </Array>
          </mxGeometry>
        </mxCell>
        <mxCell id="jkoqVyiWME8nA23onl7f-27" value="20" style="text;html=1;align=center;verticalAlign=bottom;whiteSpace=wrap;rounded=0;fontFamily=Lucida Console;fontStyle=0" vertex="1" parent="1">
          <mxGeometry x="589.5" y="394.9999999999999" width="61" height="20" as="geometry" />
        </mxCell>
        <mxCell id="jkoqVyiWME8nA23onl7f-28" value="" style="endArrow=none;html=1;rounded=0;strokeWidth=1;fontStyle=0" edge="1" parent="1">
          <mxGeometry width="50" height="50" relative="1" as="geometry">
            <mxPoint x="615.5" y="389.9999999999999" as="sourcePoint" />
            <mxPoint x="624.5" y="367.9999999999999" as="targetPoint" />
          </mxGeometry>
        </mxCell>
        <mxCell id="jkoqVyiWME8nA23onl7f-32" value="" style="group" vertex="1" connectable="0" parent="1">
          <mxGeometry x="679" y="389" width="130" height="11" as="geometry" />
        </mxCell>
        <mxCell id="jkoqVyiWME8nA23onl7f-30" value="" style="endArrow=none;html=1;rounded=0;" edge="1" parent="jkoqVyiWME8nA23onl7f-32">
          <mxGeometry width="50" height="50" relative="1" as="geometry">
            <mxPoint x="10" y="10.580000000000041" as="sourcePoint" />
            <mxPoint x="200" y="11" as="targetPoint" />
          </mxGeometry>
        </mxCell>
        <mxCell id="jkoqVyiWME8nA23onl7f-31" value="" style="endArrow=none;html=1;rounded=0;" edge="1" parent="jkoqVyiWME8nA23onl7f-32">
          <mxGeometry width="50" height="50" relative="1" as="geometry">
            <mxPoint x="11" y="11" as="sourcePoint" />
            <mxPoint x="2" as="targetPoint" />
          </mxGeometry>
        </mxCell>
        <mxCell id="jkoqVyiWME8nA23onl7f-37" value="19" style="text;html=1;align=left;verticalAlign=bottom;whiteSpace=wrap;rounded=0;fontFamily=Lucida Console;fontStyle=0" vertex="1" parent="1">
          <mxGeometry x="688" y="380" width="20" height="20" as="geometry" />
        </mxCell>
        <mxCell id="jkoqVyiWME8nA23onl7f-38" value="" style="endArrow=none;html=1;rounded=0;" edge="1" parent="1">
          <mxGeometry width="50" height="50" relative="1" as="geometry">
            <mxPoint x="879" y="400" as="sourcePoint" />
            <mxPoint x="888" y="389" as="targetPoint" />
          </mxGeometry>
        </mxCell>
        <mxCell id="jkoqVyiWME8nA23onl7f-39" value="3" style="text;html=1;align=left;verticalAlign=bottom;whiteSpace=wrap;rounded=0;fontFamily=Lucida Console;fontStyle=0" vertex="1" parent="1">
          <mxGeometry x="859" y="380" width="20" height="20" as="geometry" />
        </mxCell>
        <mxCell id="jkoqVyiWME8nA23onl7f-40" value="" style="group" vertex="1" connectable="0" parent="1">
          <mxGeometry x="680" y="408" width="130" height="11" as="geometry" />
        </mxCell>
        <mxCell id="jkoqVyiWME8nA23onl7f-41" value="" style="endArrow=none;html=1;rounded=0;" edge="1" parent="jkoqVyiWME8nA23onl7f-40">
          <mxGeometry width="50" height="50" relative="1" as="geometry">
            <mxPoint x="10" y="10.580000000000041" as="sourcePoint" />
            <mxPoint x="200" y="11" as="targetPoint" />
          </mxGeometry>
        </mxCell>
        <mxCell id="jkoqVyiWME8nA23onl7f-42" value="" style="endArrow=none;html=1;rounded=0;" edge="1" parent="jkoqVyiWME8nA23onl7f-40">
          <mxGeometry width="50" height="50" relative="1" as="geometry">
            <mxPoint x="11" y="11" as="sourcePoint" />
            <mxPoint x="2" as="targetPoint" />
          </mxGeometry>
        </mxCell>
        <mxCell id="jkoqVyiWME8nA23onl7f-43" value="9" style="text;html=1;align=left;verticalAlign=bottom;whiteSpace=wrap;rounded=0;fontFamily=Lucida Console;fontStyle=0" vertex="1" parent="1">
          <mxGeometry x="689" y="399" width="20" height="20" as="geometry" />
        </mxCell>
        <mxCell id="jkoqVyiWME8nA23onl7f-44" value="" style="endArrow=none;html=1;rounded=0;" edge="1" parent="1">
          <mxGeometry width="50" height="50" relative="1" as="geometry">
            <mxPoint x="880" y="419" as="sourcePoint" />
            <mxPoint x="889" y="408" as="targetPoint" />
          </mxGeometry>
        </mxCell>
        <mxCell id="jkoqVyiWME8nA23onl7f-45" value="2" style="text;html=1;align=left;verticalAlign=bottom;whiteSpace=wrap;rounded=0;fontFamily=Lucida Console;fontStyle=0" vertex="1" parent="1">
          <mxGeometry x="860" y="399" width="20" height="20" as="geometry" />
        </mxCell>
        <mxCell id="jkoqVyiWME8nA23onl7f-52" value="" style="group" vertex="1" connectable="0" parent="1">
          <mxGeometry x="680" y="428" width="130" height="11" as="geometry" />
        </mxCell>
        <mxCell id="jkoqVyiWME8nA23onl7f-53" value="" style="endArrow=none;html=1;rounded=0;" edge="1" parent="jkoqVyiWME8nA23onl7f-52">
          <mxGeometry width="50" height="50" relative="1" as="geometry">
            <mxPoint x="10" y="10.580000000000041" as="sourcePoint" />
            <mxPoint x="200" y="11" as="targetPoint" />
          </mxGeometry>
        </mxCell>
        <mxCell id="jkoqVyiWME8nA23onl7f-54" value="" style="endArrow=none;html=1;rounded=0;" edge="1" parent="jkoqVyiWME8nA23onl7f-52">
          <mxGeometry width="50" height="50" relative="1" as="geometry">
            <mxPoint x="11" y="11" as="sourcePoint" />
            <mxPoint x="2" as="targetPoint" />
          </mxGeometry>
        </mxCell>
        <mxCell id="jkoqVyiWME8nA23onl7f-55" value="0" style="text;html=1;align=left;verticalAlign=bottom;whiteSpace=wrap;rounded=0;fontFamily=Lucida Console;fontStyle=0" vertex="1" parent="1">
          <mxGeometry x="689" y="419" width="20" height="20" as="geometry" />
        </mxCell>
        <mxCell id="jkoqVyiWME8nA23onl7f-56" value="" style="endArrow=none;html=1;rounded=0;" edge="1" parent="1">
          <mxGeometry width="50" height="50" relative="1" as="geometry">
            <mxPoint x="880" y="439" as="sourcePoint" />
            <mxPoint x="889" y="428" as="targetPoint" />
          </mxGeometry>
        </mxCell>
        <mxCell id="jkoqVyiWME8nA23onl7f-57" value="1" style="text;html=1;align=left;verticalAlign=bottom;whiteSpace=wrap;rounded=0;fontFamily=Lucida Console;fontStyle=0" vertex="1" parent="1">
          <mxGeometry x="860" y="419" width="20" height="20" as="geometry" />
        </mxCell>
        <mxCell id="jkoqVyiWME8nA23onl7f-58" value="" style="group" vertex="1" connectable="0" parent="1">
          <mxGeometry x="680" y="448" width="130" height="11" as="geometry" />
        </mxCell>
        <mxCell id="jkoqVyiWME8nA23onl7f-59" value="" style="endArrow=none;html=1;rounded=0;" edge="1" parent="jkoqVyiWME8nA23onl7f-58">
          <mxGeometry width="50" height="50" relative="1" as="geometry">
            <mxPoint x="10" y="10.580000000000041" as="sourcePoint" />
            <mxPoint x="200" y="11" as="targetPoint" />
          </mxGeometry>
        </mxCell>
        <mxCell id="jkoqVyiWME8nA23onl7f-60" value="" style="endArrow=none;html=1;rounded=0;" edge="1" parent="jkoqVyiWME8nA23onl7f-58">
          <mxGeometry width="50" height="50" relative="1" as="geometry">
            <mxPoint x="11" y="11" as="sourcePoint" />
            <mxPoint x="2" as="targetPoint" />
          </mxGeometry>
        </mxCell>
        <mxCell id="jkoqVyiWME8nA23onl7f-61" value="10" style="text;html=1;align=left;verticalAlign=bottom;whiteSpace=wrap;rounded=0;fontFamily=Lucida Console;fontStyle=0" vertex="1" parent="1">
          <mxGeometry x="689" y="439" width="20" height="20" as="geometry" />
        </mxCell>
        <mxCell id="jkoqVyiWME8nA23onl7f-62" value="" style="endArrow=none;html=1;rounded=0;" edge="1" parent="1">
          <mxGeometry width="50" height="50" relative="1" as="geometry">
            <mxPoint x="880" y="459" as="sourcePoint" />
            <mxPoint x="889" y="448" as="targetPoint" />
          </mxGeometry>
        </mxCell>
        <mxCell id="jkoqVyiWME8nA23onl7f-63" value="0" style="text;html=1;align=left;verticalAlign=bottom;whiteSpace=wrap;rounded=0;fontFamily=Lucida Console;fontStyle=0" vertex="1" parent="1">
          <mxGeometry x="860" y="439" width="20" height="20" as="geometry" />
        </mxCell>
        <mxCell id="jkoqVyiWME8nA23onl7f-74" value="" style="group" vertex="1" connectable="0" parent="1">
          <mxGeometry x="679" y="480" width="130" height="11" as="geometry" />
        </mxCell>
        <mxCell id="jkoqVyiWME8nA23onl7f-75" value="" style="endArrow=none;html=1;rounded=0;" edge="1" parent="jkoqVyiWME8nA23onl7f-74">
          <mxGeometry width="50" height="50" relative="1" as="geometry">
            <mxPoint x="10" y="10.580000000000041" as="sourcePoint" />
            <mxPoint x="200" y="11" as="targetPoint" />
          </mxGeometry>
        </mxCell>
        <mxCell id="jkoqVyiWME8nA23onl7f-76" value="" style="endArrow=none;html=1;rounded=0;" edge="1" parent="jkoqVyiWME8nA23onl7f-74">
          <mxGeometry width="50" height="50" relative="1" as="geometry">
            <mxPoint x="11" y="11" as="sourcePoint" />
            <mxPoint x="2" as="targetPoint" />
          </mxGeometry>
        </mxCell>
        <mxCell id="jkoqVyiWME8nA23onl7f-77" value="1" style="text;html=1;align=left;verticalAlign=bottom;whiteSpace=wrap;rounded=0;fontFamily=Lucida Console;fontStyle=0" vertex="1" parent="1">
          <mxGeometry x="688" y="471" width="20" height="20" as="geometry" />
        </mxCell>
        <mxCell id="jkoqVyiWME8nA23onl7f-78" value="" style="endArrow=none;html=1;rounded=0;" edge="1" parent="1">
          <mxGeometry width="50" height="50" relative="1" as="geometry">
            <mxPoint x="879" y="491" as="sourcePoint" />
            <mxPoint x="888" y="480" as="targetPoint" />
          </mxGeometry>
        </mxCell>
        <mxCell id="jkoqVyiWME8nA23onl7f-79" value="3" style="text;html=1;align=left;verticalAlign=bottom;whiteSpace=wrap;rounded=0;fontFamily=Lucida Console;fontStyle=0" vertex="1" parent="1">
          <mxGeometry x="859" y="471" width="20" height="20" as="geometry" />
        </mxCell>
        <mxCell id="jkoqVyiWME8nA23onl7f-80" value="" style="group" vertex="1" connectable="0" parent="1">
          <mxGeometry x="680" y="499" width="130" height="11" as="geometry" />
        </mxCell>
        <mxCell id="jkoqVyiWME8nA23onl7f-81" value="" style="endArrow=none;html=1;rounded=0;" edge="1" parent="jkoqVyiWME8nA23onl7f-80">
          <mxGeometry width="50" height="50" relative="1" as="geometry">
            <mxPoint x="10" y="10.580000000000041" as="sourcePoint" />
            <mxPoint x="200" y="11" as="targetPoint" />
          </mxGeometry>
        </mxCell>
        <mxCell id="jkoqVyiWME8nA23onl7f-82" value="" style="endArrow=none;html=1;rounded=0;" edge="1" parent="jkoqVyiWME8nA23onl7f-80">
          <mxGeometry width="50" height="50" relative="1" as="geometry">
            <mxPoint x="11" y="11" as="sourcePoint" />
            <mxPoint x="2" as="targetPoint" />
          </mxGeometry>
        </mxCell>
        <mxCell id="jkoqVyiWME8nA23onl7f-83" value="18" style="text;html=1;align=left;verticalAlign=bottom;whiteSpace=wrap;rounded=0;fontFamily=Lucida Console;fontStyle=0" vertex="1" parent="1">
          <mxGeometry x="689" y="490" width="20" height="20" as="geometry" />
        </mxCell>
        <mxCell id="jkoqVyiWME8nA23onl7f-84" value="" style="endArrow=none;html=1;rounded=0;" edge="1" parent="1">
          <mxGeometry width="50" height="50" relative="1" as="geometry">
            <mxPoint x="880" y="510" as="sourcePoint" />
            <mxPoint x="889" y="499" as="targetPoint" />
          </mxGeometry>
        </mxCell>
        <mxCell id="jkoqVyiWME8nA23onl7f-85" value="2" style="text;html=1;align=left;verticalAlign=bottom;whiteSpace=wrap;rounded=0;fontFamily=Lucida Console;fontStyle=0" vertex="1" parent="1">
          <mxGeometry x="860" y="490" width="20" height="20" as="geometry" />
        </mxCell>
        <mxCell id="jkoqVyiWME8nA23onl7f-86" value="" style="group" vertex="1" connectable="0" parent="1">
          <mxGeometry x="680" y="519" width="130" height="11" as="geometry" />
        </mxCell>
        <mxCell id="jkoqVyiWME8nA23onl7f-87" value="" style="endArrow=none;html=1;rounded=0;" edge="1" parent="jkoqVyiWME8nA23onl7f-86">
          <mxGeometry width="50" height="50" relative="1" as="geometry">
            <mxPoint x="10" y="10.580000000000041" as="sourcePoint" />
            <mxPoint x="200" y="11" as="targetPoint" />
          </mxGeometry>
        </mxCell>
        <mxCell id="jkoqVyiWME8nA23onl7f-88" value="" style="endArrow=none;html=1;rounded=0;" edge="1" parent="jkoqVyiWME8nA23onl7f-86">
          <mxGeometry width="50" height="50" relative="1" as="geometry">
            <mxPoint x="11" y="11" as="sourcePoint" />
            <mxPoint x="2" as="targetPoint" />
          </mxGeometry>
        </mxCell>
        <mxCell id="jkoqVyiWME8nA23onl7f-89" value="8" style="text;html=1;align=left;verticalAlign=bottom;whiteSpace=wrap;rounded=0;fontFamily=Lucida Console;fontStyle=0" vertex="1" parent="1">
          <mxGeometry x="689" y="510" width="20" height="20" as="geometry" />
        </mxCell>
        <mxCell id="jkoqVyiWME8nA23onl7f-90" value="" style="endArrow=none;html=1;rounded=0;" edge="1" parent="1">
          <mxGeometry width="50" height="50" relative="1" as="geometry">
            <mxPoint x="880" y="530" as="sourcePoint" />
            <mxPoint x="889" y="519" as="targetPoint" />
          </mxGeometry>
        </mxCell>
        <mxCell id="jkoqVyiWME8nA23onl7f-91" value="1" style="text;html=1;align=left;verticalAlign=bottom;whiteSpace=wrap;rounded=0;fontFamily=Lucida Console;fontStyle=0" vertex="1" parent="1">
          <mxGeometry x="860" y="510" width="20" height="20" as="geometry" />
        </mxCell>
        <mxCell id="jkoqVyiWME8nA23onl7f-92" value="" style="group" vertex="1" connectable="0" parent="1">
          <mxGeometry x="680" y="539" width="130" height="11" as="geometry" />
        </mxCell>
        <mxCell id="jkoqVyiWME8nA23onl7f-93" value="" style="endArrow=none;html=1;rounded=0;" edge="1" parent="jkoqVyiWME8nA23onl7f-92">
          <mxGeometry width="50" height="50" relative="1" as="geometry">
            <mxPoint x="10" y="10.580000000000041" as="sourcePoint" />
            <mxPoint x="200" y="11" as="targetPoint" />
          </mxGeometry>
        </mxCell>
        <mxCell id="jkoqVyiWME8nA23onl7f-94" value="" style="endArrow=none;html=1;rounded=0;" edge="1" parent="jkoqVyiWME8nA23onl7f-92">
          <mxGeometry width="50" height="50" relative="1" as="geometry">
            <mxPoint x="11" y="11" as="sourcePoint" />
            <mxPoint x="2" as="targetPoint" />
          </mxGeometry>
        </mxCell>
        <mxCell id="jkoqVyiWME8nA23onl7f-95" value="11" style="text;html=1;align=left;verticalAlign=bottom;whiteSpace=wrap;rounded=0;fontFamily=Lucida Console;fontStyle=0" vertex="1" parent="1">
          <mxGeometry x="689" y="530" width="20" height="20" as="geometry" />
        </mxCell>
        <mxCell id="jkoqVyiWME8nA23onl7f-96" value="" style="endArrow=none;html=1;rounded=0;" edge="1" parent="1">
          <mxGeometry width="50" height="50" relative="1" as="geometry">
            <mxPoint x="880" y="550" as="sourcePoint" />
            <mxPoint x="889" y="539" as="targetPoint" />
          </mxGeometry>
        </mxCell>
        <mxCell id="jkoqVyiWME8nA23onl7f-97" value="0" style="text;html=1;align=left;verticalAlign=bottom;whiteSpace=wrap;rounded=0;fontFamily=Lucida Console;fontStyle=0" vertex="1" parent="1">
          <mxGeometry x="860" y="530" width="20" height="20" as="geometry" />
        </mxCell>
        <mxCell id="jkoqVyiWME8nA23onl7f-98" value="" style="group" vertex="1" connectable="0" parent="1">
          <mxGeometry x="680" y="579" width="130" height="11" as="geometry" />
        </mxCell>
        <mxCell id="jkoqVyiWME8nA23onl7f-99" value="" style="endArrow=none;html=1;rounded=0;" edge="1" parent="jkoqVyiWME8nA23onl7f-98">
          <mxGeometry width="50" height="50" relative="1" as="geometry">
            <mxPoint x="10" y="10.580000000000041" as="sourcePoint" />
            <mxPoint x="200" y="11" as="targetPoint" />
          </mxGeometry>
        </mxCell>
        <mxCell id="jkoqVyiWME8nA23onl7f-100" value="" style="endArrow=none;html=1;rounded=0;" edge="1" parent="jkoqVyiWME8nA23onl7f-98">
          <mxGeometry width="50" height="50" relative="1" as="geometry">
            <mxPoint x="11" y="11" as="sourcePoint" />
            <mxPoint x="2" as="targetPoint" />
          </mxGeometry>
        </mxCell>
        <mxCell id="jkoqVyiWME8nA23onl7f-101" value="17" style="text;html=1;align=left;verticalAlign=bottom;whiteSpace=wrap;rounded=0;fontFamily=Lucida Console;fontStyle=0" vertex="1" parent="1">
          <mxGeometry x="689" y="570" width="20" height="20" as="geometry" />
        </mxCell>
        <mxCell id="jkoqVyiWME8nA23onl7f-102" value="" style="endArrow=none;html=1;rounded=0;" edge="1" parent="1">
          <mxGeometry width="50" height="50" relative="1" as="geometry">
            <mxPoint x="880" y="590" as="sourcePoint" />
            <mxPoint x="889" y="579" as="targetPoint" />
          </mxGeometry>
        </mxCell>
        <mxCell id="jkoqVyiWME8nA23onl7f-103" value="3" style="text;html=1;align=left;verticalAlign=bottom;whiteSpace=wrap;rounded=0;fontFamily=Lucida Console;fontStyle=0" vertex="1" parent="1">
          <mxGeometry x="860" y="570" width="20" height="20" as="geometry" />
        </mxCell>
        <mxCell id="jkoqVyiWME8nA23onl7f-104" value="" style="group" vertex="1" connectable="0" parent="1">
          <mxGeometry x="680" y="598" width="130" height="11" as="geometry" />
        </mxCell>
        <mxCell id="jkoqVyiWME8nA23onl7f-105" value="" style="endArrow=none;html=1;rounded=0;" edge="1" parent="jkoqVyiWME8nA23onl7f-104">
          <mxGeometry width="50" height="50" relative="1" as="geometry">
            <mxPoint x="10" y="10.580000000000041" as="sourcePoint" />
            <mxPoint x="200" y="11" as="targetPoint" />
          </mxGeometry>
        </mxCell>
        <mxCell id="jkoqVyiWME8nA23onl7f-106" value="" style="endArrow=none;html=1;rounded=0;" edge="1" parent="jkoqVyiWME8nA23onl7f-104">
          <mxGeometry width="50" height="50" relative="1" as="geometry">
            <mxPoint x="11" y="11" as="sourcePoint" />
            <mxPoint x="2" as="targetPoint" />
          </mxGeometry>
        </mxCell>
        <mxCell id="jkoqVyiWME8nA23onl7f-107" value="2" style="text;html=1;align=left;verticalAlign=bottom;whiteSpace=wrap;rounded=0;fontFamily=Lucida Console;fontStyle=0" vertex="1" parent="1">
          <mxGeometry x="689" y="589" width="20" height="20" as="geometry" />
        </mxCell>
        <mxCell id="jkoqVyiWME8nA23onl7f-108" value="" style="endArrow=none;html=1;rounded=0;" edge="1" parent="1">
          <mxGeometry width="50" height="50" relative="1" as="geometry">
            <mxPoint x="880" y="609" as="sourcePoint" />
            <mxPoint x="889" y="598" as="targetPoint" />
          </mxGeometry>
        </mxCell>
        <mxCell id="jkoqVyiWME8nA23onl7f-109" value="2" style="text;html=1;align=left;verticalAlign=bottom;whiteSpace=wrap;rounded=0;fontFamily=Lucida Console;fontStyle=0" vertex="1" parent="1">
          <mxGeometry x="860" y="589" width="20" height="20" as="geometry" />
        </mxCell>
        <mxCell id="jkoqVyiWME8nA23onl7f-110" value="" style="group" vertex="1" connectable="0" parent="1">
          <mxGeometry x="680" y="618" width="130" height="11" as="geometry" />
        </mxCell>
        <mxCell id="jkoqVyiWME8nA23onl7f-111" value="" style="endArrow=none;html=1;rounded=0;" edge="1" parent="jkoqVyiWME8nA23onl7f-110">
          <mxGeometry width="50" height="50" relative="1" as="geometry">
            <mxPoint x="10" y="10.580000000000041" as="sourcePoint" />
            <mxPoint x="200" y="11" as="targetPoint" />
          </mxGeometry>
        </mxCell>
        <mxCell id="jkoqVyiWME8nA23onl7f-112" value="" style="endArrow=none;html=1;rounded=0;" edge="1" parent="jkoqVyiWME8nA23onl7f-110">
          <mxGeometry width="50" height="50" relative="1" as="geometry">
            <mxPoint x="11" y="11" as="sourcePoint" />
            <mxPoint x="2" as="targetPoint" />
          </mxGeometry>
        </mxCell>
        <mxCell id="jkoqVyiWME8nA23onl7f-113" value="12" style="text;html=1;align=left;verticalAlign=bottom;whiteSpace=wrap;rounded=0;fontFamily=Lucida Console;fontStyle=0" vertex="1" parent="1">
          <mxGeometry x="689" y="609" width="20" height="20" as="geometry" />
        </mxCell>
        <mxCell id="jkoqVyiWME8nA23onl7f-114" value="" style="endArrow=none;html=1;rounded=0;" edge="1" parent="1">
          <mxGeometry width="50" height="50" relative="1" as="geometry">
            <mxPoint x="880" y="629" as="sourcePoint" />
            <mxPoint x="889" y="618" as="targetPoint" />
          </mxGeometry>
        </mxCell>
        <mxCell id="jkoqVyiWME8nA23onl7f-115" value="1" style="text;html=1;align=left;verticalAlign=bottom;whiteSpace=wrap;rounded=0;fontFamily=Lucida Console;fontStyle=0" vertex="1" parent="1">
          <mxGeometry x="860" y="609" width="20" height="20" as="geometry" />
        </mxCell>
        <mxCell id="jkoqVyiWME8nA23onl7f-116" value="" style="group" vertex="1" connectable="0" parent="1">
          <mxGeometry x="680" y="638" width="130" height="11" as="geometry" />
        </mxCell>
        <mxCell id="jkoqVyiWME8nA23onl7f-117" value="" style="endArrow=none;html=1;rounded=0;" edge="1" parent="jkoqVyiWME8nA23onl7f-116">
          <mxGeometry width="50" height="50" relative="1" as="geometry">
            <mxPoint x="10" y="10.580000000000041" as="sourcePoint" />
            <mxPoint x="200" y="11" as="targetPoint" />
          </mxGeometry>
        </mxCell>
        <mxCell id="jkoqVyiWME8nA23onl7f-118" value="" style="endArrow=none;html=1;rounded=0;" edge="1" parent="jkoqVyiWME8nA23onl7f-116">
          <mxGeometry width="50" height="50" relative="1" as="geometry">
            <mxPoint x="11" y="11" as="sourcePoint" />
            <mxPoint x="2" as="targetPoint" />
          </mxGeometry>
        </mxCell>
        <mxCell id="jkoqVyiWME8nA23onl7f-119" value="7" style="text;html=1;align=left;verticalAlign=bottom;whiteSpace=wrap;rounded=0;fontFamily=Lucida Console;fontStyle=0" vertex="1" parent="1">
          <mxGeometry x="689" y="629" width="20" height="20" as="geometry" />
        </mxCell>
        <mxCell id="jkoqVyiWME8nA23onl7f-120" value="" style="endArrow=none;html=1;rounded=0;" edge="1" parent="1">
          <mxGeometry width="50" height="50" relative="1" as="geometry">
            <mxPoint x="880" y="649" as="sourcePoint" />
            <mxPoint x="889" y="638" as="targetPoint" />
          </mxGeometry>
        </mxCell>
        <mxCell id="jkoqVyiWME8nA23onl7f-121" value="0" style="text;html=1;align=left;verticalAlign=bottom;whiteSpace=wrap;rounded=0;fontFamily=Lucida Console;fontStyle=0" vertex="1" parent="1">
          <mxGeometry x="860" y="629" width="20" height="20" as="geometry" />
        </mxCell>
        <mxCell id="jkoqVyiWME8nA23onl7f-122" value="" style="group" vertex="1" connectable="0" parent="1">
          <mxGeometry x="680" y="679" width="130" height="11" as="geometry" />
        </mxCell>
        <mxCell id="jkoqVyiWME8nA23onl7f-123" value="" style="endArrow=none;html=1;rounded=0;" edge="1" parent="jkoqVyiWME8nA23onl7f-122">
          <mxGeometry width="50" height="50" relative="1" as="geometry">
            <mxPoint x="10" y="10.580000000000041" as="sourcePoint" />
            <mxPoint x="200" y="11" as="targetPoint" />
          </mxGeometry>
        </mxCell>
        <mxCell id="jkoqVyiWME8nA23onl7f-124" value="" style="endArrow=none;html=1;rounded=0;" edge="1" parent="jkoqVyiWME8nA23onl7f-122">
          <mxGeometry width="50" height="50" relative="1" as="geometry">
            <mxPoint x="11" y="11" as="sourcePoint" />
            <mxPoint x="2" as="targetPoint" />
          </mxGeometry>
        </mxCell>
        <mxCell id="jkoqVyiWME8nA23onl7f-125" value="13" style="text;html=1;align=left;verticalAlign=bottom;whiteSpace=wrap;rounded=0;fontFamily=Lucida Console;fontStyle=0" vertex="1" parent="1">
          <mxGeometry x="689" y="670" width="20" height="20" as="geometry" />
        </mxCell>
        <mxCell id="jkoqVyiWME8nA23onl7f-126" value="" style="endArrow=none;html=1;rounded=0;" edge="1" parent="1">
          <mxGeometry width="50" height="50" relative="1" as="geometry">
            <mxPoint x="880" y="690" as="sourcePoint" />
            <mxPoint x="889" y="679" as="targetPoint" />
          </mxGeometry>
        </mxCell>
        <mxCell id="jkoqVyiWME8nA23onl7f-127" value="3" style="text;html=1;align=left;verticalAlign=bottom;whiteSpace=wrap;rounded=0;fontFamily=Lucida Console;fontStyle=0" vertex="1" parent="1">
          <mxGeometry x="860" y="670" width="20" height="20" as="geometry" />
        </mxCell>
        <mxCell id="jkoqVyiWME8nA23onl7f-128" value="" style="group" vertex="1" connectable="0" parent="1">
          <mxGeometry x="680" y="698" width="130" height="11" as="geometry" />
        </mxCell>
        <mxCell id="jkoqVyiWME8nA23onl7f-129" value="" style="endArrow=none;html=1;rounded=0;" edge="1" parent="jkoqVyiWME8nA23onl7f-128">
          <mxGeometry width="50" height="50" relative="1" as="geometry">
            <mxPoint x="10" y="10.580000000000041" as="sourcePoint" />
            <mxPoint x="200" y="11" as="targetPoint" />
          </mxGeometry>
        </mxCell>
        <mxCell id="jkoqVyiWME8nA23onl7f-130" value="" style="endArrow=none;html=1;rounded=0;" edge="1" parent="jkoqVyiWME8nA23onl7f-128">
          <mxGeometry width="50" height="50" relative="1" as="geometry">
            <mxPoint x="11" y="11" as="sourcePoint" />
            <mxPoint x="2" as="targetPoint" />
          </mxGeometry>
        </mxCell>
        <mxCell id="jkoqVyiWME8nA23onl7f-131" value="3" style="text;html=1;align=left;verticalAlign=bottom;whiteSpace=wrap;rounded=0;fontFamily=Lucida Console;fontStyle=0" vertex="1" parent="1">
          <mxGeometry x="689" y="689" width="20" height="20" as="geometry" />
        </mxCell>
        <mxCell id="jkoqVyiWME8nA23onl7f-132" value="" style="endArrow=none;html=1;rounded=0;" edge="1" parent="1">
          <mxGeometry width="50" height="50" relative="1" as="geometry">
            <mxPoint x="880" y="709" as="sourcePoint" />
            <mxPoint x="889" y="698" as="targetPoint" />
          </mxGeometry>
        </mxCell>
        <mxCell id="jkoqVyiWME8nA23onl7f-133" value="2" style="text;html=1;align=left;verticalAlign=bottom;whiteSpace=wrap;rounded=0;fontFamily=Lucida Console;fontStyle=0" vertex="1" parent="1">
          <mxGeometry x="860" y="689" width="20" height="20" as="geometry" />
        </mxCell>
        <mxCell id="jkoqVyiWME8nA23onl7f-134" value="" style="group" vertex="1" connectable="0" parent="1">
          <mxGeometry x="680" y="718" width="130" height="11" as="geometry" />
        </mxCell>
        <mxCell id="jkoqVyiWME8nA23onl7f-135" value="" style="endArrow=none;html=1;rounded=0;" edge="1" parent="jkoqVyiWME8nA23onl7f-134">
          <mxGeometry width="50" height="50" relative="1" as="geometry">
            <mxPoint x="10" y="10.580000000000041" as="sourcePoint" />
            <mxPoint x="200" y="11" as="targetPoint" />
          </mxGeometry>
        </mxCell>
        <mxCell id="jkoqVyiWME8nA23onl7f-136" value="" style="endArrow=none;html=1;rounded=0;" edge="1" parent="jkoqVyiWME8nA23onl7f-134">
          <mxGeometry width="50" height="50" relative="1" as="geometry">
            <mxPoint x="11" y="11" as="sourcePoint" />
            <mxPoint x="2" as="targetPoint" />
          </mxGeometry>
        </mxCell>
        <mxCell id="jkoqVyiWME8nA23onl7f-137" value="6" style="text;html=1;align=left;verticalAlign=bottom;whiteSpace=wrap;rounded=0;fontFamily=Lucida Console;fontStyle=0" vertex="1" parent="1">
          <mxGeometry x="689" y="709" width="20" height="20" as="geometry" />
        </mxCell>
        <mxCell id="jkoqVyiWME8nA23onl7f-138" value="" style="endArrow=none;html=1;rounded=0;" edge="1" parent="1">
          <mxGeometry width="50" height="50" relative="1" as="geometry">
            <mxPoint x="880" y="729" as="sourcePoint" />
            <mxPoint x="889" y="718" as="targetPoint" />
          </mxGeometry>
        </mxCell>
        <mxCell id="jkoqVyiWME8nA23onl7f-139" value="1" style="text;html=1;align=left;verticalAlign=bottom;whiteSpace=wrap;rounded=0;fontFamily=Lucida Console;fontStyle=0" vertex="1" parent="1">
          <mxGeometry x="860" y="709" width="20" height="20" as="geometry" />
        </mxCell>
        <mxCell id="jkoqVyiWME8nA23onl7f-140" value="" style="group" vertex="1" connectable="0" parent="1">
          <mxGeometry x="680" y="738" width="130" height="11" as="geometry" />
        </mxCell>
        <mxCell id="jkoqVyiWME8nA23onl7f-141" value="" style="endArrow=none;html=1;rounded=0;" edge="1" parent="jkoqVyiWME8nA23onl7f-140">
          <mxGeometry width="50" height="50" relative="1" as="geometry">
            <mxPoint x="10" y="10.580000000000041" as="sourcePoint" />
            <mxPoint x="200" y="11" as="targetPoint" />
          </mxGeometry>
        </mxCell>
        <mxCell id="jkoqVyiWME8nA23onl7f-142" value="" style="endArrow=none;html=1;rounded=0;" edge="1" parent="jkoqVyiWME8nA23onl7f-140">
          <mxGeometry width="50" height="50" relative="1" as="geometry">
            <mxPoint x="11" y="11" as="sourcePoint" />
            <mxPoint x="2" as="targetPoint" />
          </mxGeometry>
        </mxCell>
        <mxCell id="jkoqVyiWME8nA23onl7f-143" value="16" style="text;html=1;align=left;verticalAlign=bottom;whiteSpace=wrap;rounded=0;fontFamily=Lucida Console;fontStyle=0" vertex="1" parent="1">
          <mxGeometry x="689" y="729" width="20" height="20" as="geometry" />
        </mxCell>
        <mxCell id="jkoqVyiWME8nA23onl7f-144" value="" style="endArrow=none;html=1;rounded=0;" edge="1" parent="1">
          <mxGeometry width="50" height="50" relative="1" as="geometry">
            <mxPoint x="880" y="749" as="sourcePoint" />
            <mxPoint x="889" y="738" as="targetPoint" />
          </mxGeometry>
        </mxCell>
        <mxCell id="jkoqVyiWME8nA23onl7f-145" value="0" style="text;html=1;align=left;verticalAlign=bottom;whiteSpace=wrap;rounded=0;fontFamily=Lucida Console;fontStyle=0" vertex="1" parent="1">
          <mxGeometry x="860" y="729" width="20" height="20" as="geometry" />
        </mxCell>
        <mxCell id="jkoqVyiWME8nA23onl7f-146" value="" style="group" vertex="1" connectable="0" parent="1">
          <mxGeometry x="680" y="779" width="130" height="11" as="geometry" />
        </mxCell>
        <mxCell id="jkoqVyiWME8nA23onl7f-147" value="" style="endArrow=none;html=1;rounded=0;" edge="1" parent="jkoqVyiWME8nA23onl7f-146">
          <mxGeometry width="50" height="50" relative="1" as="geometry">
            <mxPoint x="10" y="10.580000000000041" as="sourcePoint" />
            <mxPoint x="200" y="11" as="targetPoint" />
          </mxGeometry>
        </mxCell>
        <mxCell id="jkoqVyiWME8nA23onl7f-148" value="" style="endArrow=none;html=1;rounded=0;" edge="1" parent="jkoqVyiWME8nA23onl7f-146">
          <mxGeometry width="50" height="50" relative="1" as="geometry">
            <mxPoint x="11" y="11" as="sourcePoint" />
            <mxPoint x="2" as="targetPoint" />
          </mxGeometry>
        </mxCell>
        <mxCell id="jkoqVyiWME8nA23onl7f-149" value="5" style="text;html=1;align=left;verticalAlign=bottom;whiteSpace=wrap;rounded=0;fontFamily=Lucida Console;fontStyle=0" vertex="1" parent="1">
          <mxGeometry x="689" y="770" width="20" height="20" as="geometry" />
        </mxCell>
        <mxCell id="jkoqVyiWME8nA23onl7f-150" value="" style="endArrow=none;html=1;rounded=0;" edge="1" parent="1">
          <mxGeometry width="50" height="50" relative="1" as="geometry">
            <mxPoint x="880" y="790" as="sourcePoint" />
            <mxPoint x="889" y="779" as="targetPoint" />
          </mxGeometry>
        </mxCell>
        <mxCell id="jkoqVyiWME8nA23onl7f-151" value="3" style="text;html=1;align=left;verticalAlign=bottom;whiteSpace=wrap;rounded=0;fontFamily=Lucida Console;fontStyle=0" vertex="1" parent="1">
          <mxGeometry x="860" y="770" width="20" height="20" as="geometry" />
        </mxCell>
        <mxCell id="jkoqVyiWME8nA23onl7f-152" value="" style="group" vertex="1" connectable="0" parent="1">
          <mxGeometry x="680" y="798" width="130" height="11" as="geometry" />
        </mxCell>
        <mxCell id="jkoqVyiWME8nA23onl7f-153" value="" style="endArrow=none;html=1;rounded=0;" edge="1" parent="jkoqVyiWME8nA23onl7f-152">
          <mxGeometry width="50" height="50" relative="1" as="geometry">
            <mxPoint x="10" y="10.580000000000041" as="sourcePoint" />
            <mxPoint x="200" y="11" as="targetPoint" />
          </mxGeometry>
        </mxCell>
        <mxCell id="jkoqVyiWME8nA23onl7f-154" value="" style="endArrow=none;html=1;rounded=0;" edge="1" parent="jkoqVyiWME8nA23onl7f-152">
          <mxGeometry width="50" height="50" relative="1" as="geometry">
            <mxPoint x="11" y="11" as="sourcePoint" />
            <mxPoint x="2" as="targetPoint" />
          </mxGeometry>
        </mxCell>
        <mxCell id="jkoqVyiWME8nA23onl7f-155" value="14" style="text;html=1;align=left;verticalAlign=bottom;whiteSpace=wrap;rounded=0;fontFamily=Lucida Console;fontStyle=0" vertex="1" parent="1">
          <mxGeometry x="689" y="789" width="20" height="20" as="geometry" />
        </mxCell>
        <mxCell id="jkoqVyiWME8nA23onl7f-156" value="" style="endArrow=none;html=1;rounded=0;" edge="1" parent="1">
          <mxGeometry width="50" height="50" relative="1" as="geometry">
            <mxPoint x="880" y="809" as="sourcePoint" />
            <mxPoint x="889" y="798" as="targetPoint" />
          </mxGeometry>
        </mxCell>
        <mxCell id="jkoqVyiWME8nA23onl7f-157" value="2" style="text;html=1;align=left;verticalAlign=bottom;whiteSpace=wrap;rounded=0;fontFamily=Lucida Console;fontStyle=0" vertex="1" parent="1">
          <mxGeometry x="860" y="789" width="20" height="20" as="geometry" />
        </mxCell>
        <mxCell id="jkoqVyiWME8nA23onl7f-158" value="" style="group" vertex="1" connectable="0" parent="1">
          <mxGeometry x="680" y="818" width="130" height="11" as="geometry" />
        </mxCell>
        <mxCell id="jkoqVyiWME8nA23onl7f-159" value="" style="endArrow=none;html=1;rounded=0;" edge="1" parent="jkoqVyiWME8nA23onl7f-158">
          <mxGeometry width="50" height="50" relative="1" as="geometry">
            <mxPoint x="10" y="10.580000000000041" as="sourcePoint" />
            <mxPoint x="200" y="11" as="targetPoint" />
          </mxGeometry>
        </mxCell>
        <mxCell id="jkoqVyiWME8nA23onl7f-160" value="" style="endArrow=none;html=1;rounded=0;" edge="1" parent="jkoqVyiWME8nA23onl7f-158">
          <mxGeometry width="50" height="50" relative="1" as="geometry">
            <mxPoint x="11" y="11" as="sourcePoint" />
            <mxPoint x="2" as="targetPoint" />
          </mxGeometry>
        </mxCell>
        <mxCell id="jkoqVyiWME8nA23onl7f-161" value="15" style="text;html=1;align=left;verticalAlign=bottom;whiteSpace=wrap;rounded=0;fontFamily=Lucida Console;fontStyle=0" vertex="1" parent="1">
          <mxGeometry x="689" y="809" width="20" height="20" as="geometry" />
        </mxCell>
        <mxCell id="jkoqVyiWME8nA23onl7f-162" value="" style="endArrow=none;html=1;rounded=0;" edge="1" parent="1">
          <mxGeometry width="50" height="50" relative="1" as="geometry">
            <mxPoint x="880" y="829" as="sourcePoint" />
            <mxPoint x="889" y="818" as="targetPoint" />
          </mxGeometry>
        </mxCell>
        <mxCell id="jkoqVyiWME8nA23onl7f-163" value="1" style="text;html=1;align=left;verticalAlign=bottom;whiteSpace=wrap;rounded=0;fontFamily=Lucida Console;fontStyle=0" vertex="1" parent="1">
          <mxGeometry x="860" y="809" width="20" height="20" as="geometry" />
        </mxCell>
        <mxCell id="jkoqVyiWME8nA23onl7f-164" value="" style="group" vertex="1" connectable="0" parent="1">
          <mxGeometry x="680" y="838" width="130" height="11" as="geometry" />
        </mxCell>
        <mxCell id="jkoqVyiWME8nA23onl7f-165" value="" style="endArrow=none;html=1;rounded=0;" edge="1" parent="jkoqVyiWME8nA23onl7f-164">
          <mxGeometry width="50" height="50" relative="1" as="geometry">
            <mxPoint x="10" y="10.580000000000041" as="sourcePoint" />
            <mxPoint x="200" y="11" as="targetPoint" />
          </mxGeometry>
        </mxCell>
        <mxCell id="jkoqVyiWME8nA23onl7f-166" value="" style="endArrow=none;html=1;rounded=0;" edge="1" parent="jkoqVyiWME8nA23onl7f-164">
          <mxGeometry width="50" height="50" relative="1" as="geometry">
            <mxPoint x="11" y="11" as="sourcePoint" />
            <mxPoint x="2" as="targetPoint" />
          </mxGeometry>
        </mxCell>
        <mxCell id="jkoqVyiWME8nA23onl7f-167" value="5" style="text;html=1;align=left;verticalAlign=bottom;whiteSpace=wrap;rounded=0;fontFamily=Lucida Console;fontStyle=0" vertex="1" parent="1">
          <mxGeometry x="689" y="829" width="20" height="20" as="geometry" />
        </mxCell>
        <mxCell id="jkoqVyiWME8nA23onl7f-168" value="" style="endArrow=none;html=1;rounded=0;" edge="1" parent="1">
          <mxGeometry width="50" height="50" relative="1" as="geometry">
            <mxPoint x="880" y="849" as="sourcePoint" />
            <mxPoint x="889" y="838" as="targetPoint" />
          </mxGeometry>
        </mxCell>
        <mxCell id="jkoqVyiWME8nA23onl7f-169" value="0" style="text;html=1;align=left;verticalAlign=bottom;whiteSpace=wrap;rounded=0;fontFamily=Lucida Console;fontStyle=0" vertex="1" parent="1">
          <mxGeometry x="860" y="829" width="20" height="20" as="geometry" />
        </mxCell>
        <mxCell id="jkoqVyiWME8nA23onl7f-170" value="" style="group" vertex="1" connectable="0" parent="1">
          <mxGeometry x="771" y="387" width="26" height="21" as="geometry" />
        </mxCell>
        <mxCell id="jkoqVyiWME8nA23onl7f-64" value="" style="triangle;whiteSpace=wrap;html=1;" vertex="1" parent="jkoqVyiWME8nA23onl7f-170">
          <mxGeometry y="5" width="16" height="16" as="geometry" />
        </mxCell>
        <mxCell id="jkoqVyiWME8nA23onl7f-66" value="" style="ellipse;whiteSpace=wrap;html=1;aspect=fixed;" vertex="1" parent="jkoqVyiWME8nA23onl7f-170">
          <mxGeometry x="16" y="10" width="6" height="6" as="geometry" />
        </mxCell>
        <mxCell id="jkoqVyiWME8nA23onl7f-179" value="" style="group" vertex="1" connectable="0" parent="1">
          <mxGeometry x="770" y="478" width="26" height="21" as="geometry" />
        </mxCell>
        <mxCell id="jkoqVyiWME8nA23onl7f-180" value="" style="triangle;whiteSpace=wrap;html=1;" vertex="1" parent="jkoqVyiWME8nA23onl7f-179">
          <mxGeometry y="5" width="16" height="16" as="geometry" />
        </mxCell>
        <mxCell id="jkoqVyiWME8nA23onl7f-181" value="" style="ellipse;whiteSpace=wrap;html=1;aspect=fixed;" vertex="1" parent="jkoqVyiWME8nA23onl7f-179">
          <mxGeometry x="16" y="10" width="6" height="6" as="geometry" />
        </mxCell>
        <mxCell id="jkoqVyiWME8nA23onl7f-182" value="" style="group" vertex="1" connectable="0" parent="1">
          <mxGeometry x="772" y="537" width="26" height="21" as="geometry" />
        </mxCell>
        <mxCell id="jkoqVyiWME8nA23onl7f-183" value="" style="triangle;whiteSpace=wrap;html=1;" vertex="1" parent="jkoqVyiWME8nA23onl7f-182">
          <mxGeometry y="5" width="16" height="16" as="geometry" />
        </mxCell>
        <mxCell id="jkoqVyiWME8nA23onl7f-184" value="" style="ellipse;whiteSpace=wrap;html=1;aspect=fixed;" vertex="1" parent="jkoqVyiWME8nA23onl7f-182">
          <mxGeometry x="16" y="10" width="6" height="6" as="geometry" />
        </mxCell>
        <mxCell id="jkoqVyiWME8nA23onl7f-177" value="" style="triangle;whiteSpace=wrap;html=1;" vertex="1" parent="1">
          <mxGeometry x="773" y="431" width="16" height="16" as="geometry" />
        </mxCell>
        <mxCell id="jkoqVyiWME8nA23onl7f-178" value="" style="ellipse;whiteSpace=wrap;html=1;aspect=fixed;" vertex="1" parent="1">
          <mxGeometry x="789" y="436" width="6" height="6" as="geometry" />
        </mxCell>
        <mxCell id="jkoqVyiWME8nA23onl7f-185" value="" style="group" vertex="1" connectable="0" parent="1">
          <mxGeometry x="774" y="595" width="26" height="21" as="geometry" />
        </mxCell>
        <mxCell id="jkoqVyiWME8nA23onl7f-186" value="" style="triangle;whiteSpace=wrap;html=1;" vertex="1" parent="jkoqVyiWME8nA23onl7f-185">
          <mxGeometry y="5" width="16" height="16" as="geometry" />
        </mxCell>
        <mxCell id="jkoqVyiWME8nA23onl7f-187" value="" style="ellipse;whiteSpace=wrap;html=1;aspect=fixed;" vertex="1" parent="jkoqVyiWME8nA23onl7f-185">
          <mxGeometry x="16" y="10" width="6" height="6" as="geometry" />
        </mxCell>
        <mxCell id="jkoqVyiWME8nA23onl7f-188" value="" style="group" vertex="1" connectable="0" parent="1">
          <mxGeometry x="774" y="636" width="26" height="21" as="geometry" />
        </mxCell>
        <mxCell id="jkoqVyiWME8nA23onl7f-189" value="" style="triangle;whiteSpace=wrap;html=1;" vertex="1" parent="jkoqVyiWME8nA23onl7f-188">
          <mxGeometry y="5" width="16" height="16" as="geometry" />
        </mxCell>
        <mxCell id="jkoqVyiWME8nA23onl7f-190" value="" style="ellipse;whiteSpace=wrap;html=1;aspect=fixed;" vertex="1" parent="jkoqVyiWME8nA23onl7f-188">
          <mxGeometry x="16" y="10" width="6" height="6" as="geometry" />
        </mxCell>
        <mxCell id="jkoqVyiWME8nA23onl7f-191" value="" style="group" vertex="1" connectable="0" parent="1">
          <mxGeometry x="774" y="696" width="26" height="21" as="geometry" />
        </mxCell>
        <mxCell id="jkoqVyiWME8nA23onl7f-192" value="" style="triangle;whiteSpace=wrap;html=1;" vertex="1" parent="jkoqVyiWME8nA23onl7f-191">
          <mxGeometry y="5" width="16" height="16" as="geometry" />
        </mxCell>
        <mxCell id="jkoqVyiWME8nA23onl7f-193" value="" style="ellipse;whiteSpace=wrap;html=1;aspect=fixed;" vertex="1" parent="jkoqVyiWME8nA23onl7f-191">
          <mxGeometry x="16" y="10" width="6" height="6" as="geometry" />
        </mxCell>
        <mxCell id="jkoqVyiWME8nA23onl7f-194" value="" style="group" vertex="1" connectable="0" parent="1">
          <mxGeometry x="774" y="716" width="26" height="21" as="geometry" />
        </mxCell>
        <mxCell id="jkoqVyiWME8nA23onl7f-195" value="" style="triangle;whiteSpace=wrap;html=1;" vertex="1" parent="jkoqVyiWME8nA23onl7f-194">
          <mxGeometry y="5" width="16" height="16" as="geometry" />
        </mxCell>
        <mxCell id="jkoqVyiWME8nA23onl7f-196" value="" style="ellipse;whiteSpace=wrap;html=1;aspect=fixed;" vertex="1" parent="jkoqVyiWME8nA23onl7f-194">
          <mxGeometry x="16" y="10" width="6" height="6" as="geometry" />
        </mxCell>
        <mxCell id="jkoqVyiWME8nA23onl7f-197" value="" style="group" vertex="1" connectable="0" parent="1">
          <mxGeometry x="775" y="777" width="26" height="21" as="geometry" />
        </mxCell>
        <mxCell id="jkoqVyiWME8nA23onl7f-198" value="" style="triangle;whiteSpace=wrap;html=1;" vertex="1" parent="jkoqVyiWME8nA23onl7f-197">
          <mxGeometry y="5" width="16" height="16" as="geometry" />
        </mxCell>
        <mxCell id="jkoqVyiWME8nA23onl7f-199" value="" style="ellipse;whiteSpace=wrap;html=1;aspect=fixed;" vertex="1" parent="jkoqVyiWME8nA23onl7f-197">
          <mxGeometry x="16" y="10" width="6" height="6" as="geometry" />
        </mxCell>
        <mxCell id="jkoqVyiWME8nA23onl7f-200" value="" style="group" vertex="1" connectable="0" parent="1">
          <mxGeometry x="775" y="816" width="26" height="21" as="geometry" />
        </mxCell>
        <mxCell id="jkoqVyiWME8nA23onl7f-201" value="" style="triangle;whiteSpace=wrap;html=1;" vertex="1" parent="jkoqVyiWME8nA23onl7f-200">
          <mxGeometry y="5" width="16" height="16" as="geometry" />
        </mxCell>
        <mxCell id="jkoqVyiWME8nA23onl7f-202" value="" style="ellipse;whiteSpace=wrap;html=1;aspect=fixed;" vertex="1" parent="jkoqVyiWME8nA23onl7f-200">
          <mxGeometry x="16" y="10" width="6" height="6" as="geometry" />
        </mxCell>
        <mxCell id="jkoqVyiWME8nA23onl7f-203" value="" style="endArrow=none;html=1;rounded=0;strokeWidth=3;edgeStyle=elbowEdgeStyle;" edge="1" parent="1">
          <mxGeometry width="50" height="50" relative="1" as="geometry">
            <mxPoint x="1000" y="381" as="sourcePoint" />
            <mxPoint x="890" y="461" as="targetPoint" />
            <Array as="points">
              <mxPoint x="890" y="612" />
            </Array>
          </mxGeometry>
        </mxCell>
        <mxCell id="jkoqVyiWME8nA23onl7f-204" value="" style="endArrow=none;html=1;rounded=0;strokeWidth=3;edgeStyle=elbowEdgeStyle;" edge="1" parent="1">
          <mxGeometry width="50" height="50" relative="1" as="geometry">
            <mxPoint x="1000" y="472" as="sourcePoint" />
            <mxPoint x="890" y="552" as="targetPoint" />
            <Array as="points">
              <mxPoint x="890" y="703" />
            </Array>
          </mxGeometry>
        </mxCell>
        <mxCell id="jkoqVyiWME8nA23onl7f-205" value="" style="endArrow=none;html=1;rounded=0;strokeWidth=3;edgeStyle=elbowEdgeStyle;" edge="1" parent="1">
          <mxGeometry width="50" height="50" relative="1" as="geometry">
            <mxPoint x="1000" y="572" as="sourcePoint" />
            <mxPoint x="890" y="652" as="targetPoint" />
            <Array as="points">
              <mxPoint x="890" y="803" />
            </Array>
          </mxGeometry>
        </mxCell>
        <mxCell id="jkoqVyiWME8nA23onl7f-206" value="" style="endArrow=none;html=1;rounded=0;strokeWidth=3;edgeStyle=elbowEdgeStyle;" edge="1" parent="1">
          <mxGeometry width="50" height="50" relative="1" as="geometry">
            <mxPoint x="1000" y="676" as="sourcePoint" />
            <mxPoint x="890" y="756" as="targetPoint" />
            <Array as="points">
              <mxPoint x="890" y="907" />
            </Array>
          </mxGeometry>
        </mxCell>
        <mxCell id="jkoqVyiWME8nA23onl7f-207" value="" style="endArrow=none;html=1;rounded=0;strokeWidth=3;edgeStyle=elbowEdgeStyle;" edge="1" parent="1">
          <mxGeometry width="50" height="50" relative="1" as="geometry">
            <mxPoint x="1000" y="776" as="sourcePoint" />
            <mxPoint x="890" y="856" as="targetPoint" />
            <Array as="points">
              <mxPoint x="890" y="1007" />
            </Array>
          </mxGeometry>
        </mxCell>
        <mxCell id="jkoqVyiWME8nA23onl7f-208" value="4" style="text;html=1;align=center;verticalAlign=bottom;whiteSpace=wrap;rounded=0;fontFamily=Lucida Console;fontStyle=0" vertex="1" parent="1">
          <mxGeometry x="920" y="792" width="61" height="20" as="geometry" />
        </mxCell>
        <mxCell id="jkoqVyiWME8nA23onl7f-209" value="" style="endArrow=none;html=1;rounded=0;strokeWidth=1;fontStyle=0" edge="1" parent="1">
          <mxGeometry width="50" height="50" relative="1" as="geometry">
            <mxPoint x="946" y="787" as="sourcePoint" />
            <mxPoint x="955" y="765" as="targetPoint" />
          </mxGeometry>
        </mxCell>
        <mxCell id="jkoqVyiWME8nA23onl7f-210" value="4" style="text;html=1;align=center;verticalAlign=bottom;whiteSpace=wrap;rounded=0;fontFamily=Lucida Console;fontStyle=0" vertex="1" parent="1">
          <mxGeometry x="920" y="691" width="61" height="20" as="geometry" />
        </mxCell>
        <mxCell id="jkoqVyiWME8nA23onl7f-211" value="" style="endArrow=none;html=1;rounded=0;strokeWidth=1;fontStyle=0" edge="1" parent="1">
          <mxGeometry width="50" height="50" relative="1" as="geometry">
            <mxPoint x="946" y="686" as="sourcePoint" />
            <mxPoint x="955" y="664" as="targetPoint" />
          </mxGeometry>
        </mxCell>
        <mxCell id="jkoqVyiWME8nA23onl7f-212" value="4" style="text;html=1;align=center;verticalAlign=bottom;whiteSpace=wrap;rounded=0;fontFamily=Lucida Console;fontStyle=0" vertex="1" parent="1">
          <mxGeometry x="920" y="588" width="61" height="20" as="geometry" />
        </mxCell>
        <mxCell id="jkoqVyiWME8nA23onl7f-213" value="" style="endArrow=none;html=1;rounded=0;strokeWidth=1;fontStyle=0" edge="1" parent="1">
          <mxGeometry width="50" height="50" relative="1" as="geometry">
            <mxPoint x="946" y="583" as="sourcePoint" />
            <mxPoint x="955" y="561" as="targetPoint" />
          </mxGeometry>
        </mxCell>
        <mxCell id="jkoqVyiWME8nA23onl7f-214" value="4" style="text;html=1;align=center;verticalAlign=bottom;whiteSpace=wrap;rounded=0;fontFamily=Lucida Console;fontStyle=0" vertex="1" parent="1">
          <mxGeometry x="920" y="488" width="61" height="20" as="geometry" />
        </mxCell>
        <mxCell id="jkoqVyiWME8nA23onl7f-215" value="" style="endArrow=none;html=1;rounded=0;strokeWidth=1;fontStyle=0" edge="1" parent="1">
          <mxGeometry width="50" height="50" relative="1" as="geometry">
            <mxPoint x="946" y="483" as="sourcePoint" />
            <mxPoint x="955" y="461" as="targetPoint" />
          </mxGeometry>
        </mxCell>
        <mxCell id="jkoqVyiWME8nA23onl7f-216" value="4" style="text;html=1;align=center;verticalAlign=bottom;whiteSpace=wrap;rounded=0;fontFamily=Lucida Console;fontStyle=0" vertex="1" parent="1">
          <mxGeometry x="920" y="398" width="61" height="20" as="geometry" />
        </mxCell>
        <mxCell id="jkoqVyiWME8nA23onl7f-217" value="" style="endArrow=none;html=1;rounded=0;strokeWidth=1;fontStyle=0" edge="1" parent="1">
          <mxGeometry width="50" height="50" relative="1" as="geometry">
            <mxPoint x="946" y="393" as="sourcePoint" />
            <mxPoint x="955" y="371" as="targetPoint" />
          </mxGeometry>
        </mxCell>
        <mxCell id="jkoqVyiWME8nA23onl7f-219" value="" style="endArrow=none;html=1;rounded=0;edgeStyle=elbowEdgeStyle;exitX=1;exitY=0.5;exitDx=0;exitDy=0;exitPerimeter=0;" edge="1" parent="1" source="jkoqVyiWME8nA23onl7f-220">
          <mxGeometry width="50" height="50" relative="1" as="geometry">
            <mxPoint x="240" y="220" as="sourcePoint" />
            <mxPoint x="400" y="330" as="targetPoint" />
            <Array as="points">
              <mxPoint x="340" y="280" />
            </Array>
          </mxGeometry>
        </mxCell>
        <mxCell id="jkoqVyiWME8nA23onl7f-220" value="nextEn" style="html=1;shadow=0;dashed=0;align=center;verticalAlign=middle;shape=mxgraph.arrows2.arrow;dy=0;dx=10;notch=0;fontFamily=Lucida Console;spacingRight=16;" vertex="1" parent="1">
          <mxGeometry x="150" y="188" width="100" height="25" as="geometry" />
        </mxCell>
        <mxCell id="jkoqVyiWME8nA23onl7f-221" value="random1" style="html=1;shadow=0;dashed=0;align=center;verticalAlign=middle;shape=mxgraph.arrows2.arrow;dy=0;dx=10;notch=0;fontFamily=Lucida Console;spacingRight=16;" vertex="1" parent="1">
          <mxGeometry x="1000" y="367.5" width="100" height="25" as="geometry" />
        </mxCell>
        <mxCell id="jkoqVyiWME8nA23onl7f-222" value="random2" style="html=1;shadow=0;dashed=0;align=center;verticalAlign=middle;shape=mxgraph.arrows2.arrow;dy=0;dx=10;notch=0;fontFamily=Lucida Console;spacingRight=16;" vertex="1" parent="1">
          <mxGeometry x="1000" y="459" width="100" height="25" as="geometry" />
        </mxCell>
        <mxCell id="jkoqVyiWME8nA23onl7f-223" value="random3" style="html=1;shadow=0;dashed=0;align=center;verticalAlign=middle;shape=mxgraph.arrows2.arrow;dy=0;dx=10;notch=0;fontFamily=Lucida Console;spacingRight=16;" vertex="1" parent="1">
          <mxGeometry x="1000" y="558" width="100" height="25" as="geometry" />
        </mxCell>
        <mxCell id="jkoqVyiWME8nA23onl7f-224" value="random4" style="html=1;shadow=0;dashed=0;align=center;verticalAlign=middle;shape=mxgraph.arrows2.arrow;dy=0;dx=10;notch=0;fontFamily=Lucida Console;spacingRight=16;" vertex="1" parent="1">
          <mxGeometry x="1000" y="664" width="100" height="25" as="geometry" />
        </mxCell>
        <mxCell id="jkoqVyiWME8nA23onl7f-225" value="random5" style="html=1;shadow=0;dashed=0;align=center;verticalAlign=middle;shape=mxgraph.arrows2.arrow;dy=0;dx=10;notch=0;fontFamily=Lucida Console;spacingRight=16;" vertex="1" parent="1">
          <mxGeometry x="1000" y="764" width="100" height="25" as="geometry" />
        </mxCell>
        <mxCell id="jkoqVyiWME8nA23onl7f-226" value="reset" style="html=1;shadow=0;dashed=0;align=center;verticalAlign=middle;shape=mxgraph.arrows2.arrow;dy=0;dx=10;notch=0;fontFamily=Lucida Console;spacingRight=16;" vertex="1" parent="1">
          <mxGeometry x="60" y="593.79" width="100" height="25" as="geometry" />
        </mxCell>
        <mxCell id="jkoqVyiWME8nA23onl7f-227" value="clock" style="html=1;shadow=0;dashed=0;align=center;verticalAlign=middle;shape=mxgraph.arrows2.arrow;dy=0;dx=10;notch=0;fontFamily=Lucida Console;spacingRight=16;" vertex="1" parent="1">
          <mxGeometry x="60" y="626.79" width="100" height="25" as="geometry" />
        </mxCell>
        <mxCell id="jkoqVyiWME8nA23onl7f-228" value="clock" style="text;html=1;align=left;verticalAlign=bottom;whiteSpace=wrap;rounded=0;fontFamily=Lucida Console;spacingRight=0;spacingLeft=12;" vertex="1" parent="1">
          <mxGeometry x="160" y="586.2199999999999" width="120" height="20" as="geometry" />
        </mxCell>
        <mxCell id="jkoqVyiWME8nA23onl7f-229" value="" style="endArrow=none;html=1;rounded=0;" edge="1" parent="1">
          <mxGeometry width="50" height="50" relative="1" as="geometry">
            <mxPoint x="160" y="606.2199999999999" as="sourcePoint" />
            <mxPoint x="240" y="605.79" as="targetPoint" />
          </mxGeometry>
        </mxCell>
        <mxCell id="jkoqVyiWME8nA23onl7f-230" value="reset" style="text;html=1;align=left;verticalAlign=bottom;whiteSpace=wrap;rounded=0;fontFamily=Lucida Console;spacingRight=0;spacingLeft=12;" vertex="1" parent="1">
          <mxGeometry x="160" y="619.2199999999999" width="120" height="20" as="geometry" />
        </mxCell>
        <mxCell id="jkoqVyiWME8nA23onl7f-231" value="" style="endArrow=none;html=1;rounded=0;entryX=0.657;entryY=0.979;entryDx=0;entryDy=0;entryPerimeter=0;" edge="1" parent="1" target="jkoqVyiWME8nA23onl7f-230">
          <mxGeometry width="50" height="50" relative="1" as="geometry">
            <mxPoint x="160" y="639.2199999999999" as="sourcePoint" />
            <mxPoint x="280" y="639.2199999999999" as="targetPoint" />
          </mxGeometry>
        </mxCell>
      </root>
    </mxGraphModel>
  </diagram>
</mxfile>
